<mxfile host="65bd71144e">
    <diagram id="AAFfUJCzikxyt_n8qBB_" name="Page-1">
        <mxGraphModel dx="1838" dy="801" grid="0" gridSize="10" guides="1" tooltips="1" connect="1" arrows="1" fold="1" page="0" pageScale="1" pageWidth="850" pageHeight="1100" math="0" shadow="0">
            <root>
                <mxCell id="0"/>
                <mxCell id="1" parent="0"/>
                <mxCell id="20" value="" style="html=1;verticalAlign=bottom;labelBackgroundColor=none;endArrow=block;endFill=1;dashed=1;entryX=1.25;entryY=0.345;entryDx=0;entryDy=0;entryPerimeter=0;" parent="1" source="11" target="8" edge="1">
                    <mxGeometry width="160" relative="1" as="geometry">
                        <mxPoint x="390" y="240" as="sourcePoint"/>
                        <mxPoint x="230" y="240" as="targetPoint"/>
                        <Array as="points">
                            <mxPoint x="300" y="256"/>
                        </Array>
                    </mxGeometry>
                </mxCell>
                <mxCell id="2" value="User" style="shape=umlLifeline;perimeter=lifelinePerimeter;whiteSpace=wrap;html=1;container=1;collapsible=0;recursiveResize=0;outlineConnect=0;" parent="1" vertex="1">
                    <mxGeometry x="70" y="80" width="100" height="370" as="geometry"/>
                </mxCell>
                <mxCell id="27" value="" style="html=1;verticalAlign=bottom;labelBackgroundColor=none;endArrow=block;endFill=1;endSize=6;align=left;dashed=1;" parent="2" edge="1">
                    <mxGeometry x="-0.3354" relative="1" as="geometry">
                        <mxPoint x="155" y="340" as="sourcePoint"/>
                        <mxPoint x="49.666666666666515" y="340" as="targetPoint"/>
                        <mxPoint as="offset"/>
                        <Array as="points"/>
                    </mxGeometry>
                </mxCell>
                <mxCell id="29" value="logout" style="edgeLabel;html=1;align=center;verticalAlign=middle;resizable=0;points=[];" parent="27" vertex="1" connectable="0">
                    <mxGeometry x="-0.4114" y="-1" relative="1" as="geometry">
                        <mxPoint as="offset"/>
                    </mxGeometry>
                </mxCell>
                <mxCell id="7" value=":Login" style="shape=umlLifeline;perimeter=lifelinePerimeter;whiteSpace=wrap;html=1;container=1;collapsible=0;recursiveResize=0;outlineConnect=0;" parent="1" vertex="1">
                    <mxGeometry x="180" y="80" width="100" height="370" as="geometry"/>
                </mxCell>
                <mxCell id="8" value="" style="html=1;points=[];perimeter=orthogonalPerimeter;fillColor=#808080;" parent="7" vertex="1">
                    <mxGeometry x="45" y="90" width="10" height="250" as="geometry"/>
                </mxCell>
                <mxCell id="17" value="login" style="html=1;verticalAlign=bottom;labelBackgroundColor=none;endArrow=block;endFill=1;endSize=6;align=left;" parent="7" source="2" edge="1">
                    <mxGeometry x="-0.3058" y="10" relative="1" as="geometry">
                        <mxPoint x="-90" y="90" as="sourcePoint"/>
                        <mxPoint x="45" y="90" as="targetPoint"/>
                        <mxPoint as="offset"/>
                    </mxGeometry>
                </mxCell>
                <mxCell id="18" value="password verification" style="html=1;verticalAlign=bottom;labelBackgroundColor=none;endArrow=block;endFill=1;endSize=6;align=left;" parent="7" target="11" edge="1">
                    <mxGeometry x="-0.7135" y="10" relative="1" as="geometry">
                        <mxPoint x="55" y="120" as="sourcePoint"/>
                        <mxPoint x="200.5" y="120" as="targetPoint"/>
                        <mxPoint as="offset"/>
                    </mxGeometry>
                </mxCell>
                <mxCell id="25" value="submit ticket" style="html=1;verticalAlign=bottom;labelBackgroundColor=none;endArrow=block;endFill=1;endSize=6;align=left;" parent="7" target="15" edge="1">
                    <mxGeometry x="0.6521" y="10" relative="1" as="geometry">
                        <mxPoint x="50" y="280" as="sourcePoint"/>
                        <mxPoint x="279.5" y="280" as="targetPoint"/>
                        <mxPoint as="offset"/>
                    </mxGeometry>
                </mxCell>
                <mxCell id="11" value=":PasswordVerific" style="shape=umlLifeline;perimeter=lifelinePerimeter;whiteSpace=wrap;html=1;container=1;collapsible=0;recursiveResize=0;outlineConnect=0;" parent="1" vertex="1">
                    <mxGeometry x="360" y="80" width="100" height="360" as="geometry"/>
                </mxCell>
                <mxCell id="12" value="" style="html=1;points=[];perimeter=orthogonalPerimeter;fillColor=#808080;" parent="11" vertex="1">
                    <mxGeometry x="45" y="120" width="10" height="40" as="geometry"/>
                </mxCell>
                <mxCell id="23" value="" style="html=1;verticalAlign=bottom;labelBackgroundColor=none;endArrow=block;endFill=1;dashed=1;" parent="11" edge="1">
                    <mxGeometry width="160" relative="1" as="geometry">
                        <mxPoint x="205" y="240" as="sourcePoint"/>
                        <mxPoint x="-120" y="240" as="targetPoint"/>
                    </mxGeometry>
                </mxCell>
                <mxCell id="13" value=":LoginError" style="shape=umlLifeline;perimeter=lifelinePerimeter;whiteSpace=wrap;html=1;container=1;collapsible=0;recursiveResize=0;outlineConnect=0;" parent="1" vertex="1">
                    <mxGeometry x="520" y="80" width="100" height="360" as="geometry"/>
                </mxCell>
                <mxCell id="14" value="" style="html=1;points=[];perimeter=orthogonalPerimeter;fillColor=#808080;" parent="13" vertex="1">
                    <mxGeometry x="45" y="200" width="10" height="40" as="geometry"/>
                </mxCell>
                <mxCell id="15" value=":SubmitTicket" style="shape=umlLifeline;perimeter=lifelinePerimeter;whiteSpace=wrap;html=1;container=1;collapsible=0;recursiveResize=0;outlineConnect=0;" parent="1" vertex="1">
                    <mxGeometry x="700" y="80" width="100" height="360" as="geometry"/>
                </mxCell>
                <mxCell id="16" value="" style="html=1;points=[];perimeter=orthogonalPerimeter;fillColor=#808080;" parent="15" vertex="1">
                    <mxGeometry x="45" y="280" width="10" height="40" as="geometry"/>
                </mxCell>
                <mxCell id="28" value="ticket feedback" style="html=1;verticalAlign=bottom;labelBackgroundColor=none;endArrow=block;endFill=1;endSize=6;align=left;dashed=1;" parent="15" edge="1">
                    <mxGeometry x="-0.1898" y="20" relative="1" as="geometry">
                        <mxPoint x="55.00000000000023" y="320" as="sourcePoint"/>
                        <mxPoint x="-470" y="320" as="targetPoint"/>
                        <mxPoint as="offset"/>
                    </mxGeometry>
                </mxCell>
                <mxCell id="21" value="verification result" style="text;html=1;align=center;verticalAlign=middle;resizable=0;points=[];autosize=1;strokeColor=none;fillColor=none;" parent="1" vertex="1">
                    <mxGeometry x="245" y="215" width="110" height="30" as="geometry"/>
                </mxCell>
                <mxCell id="22" value="login error" style="html=1;verticalAlign=bottom;labelBackgroundColor=none;endArrow=block;endFill=1;endSize=6;align=left;" parent="1" target="13" edge="1">
                    <mxGeometry x="0.296" y="10" relative="1" as="geometry">
                        <mxPoint x="230" y="280" as="sourcePoint"/>
                        <mxPoint x="404.5" y="280" as="targetPoint"/>
                        <mxPoint as="offset"/>
                    </mxGeometry>
                </mxCell>
                <mxCell id="24" value="error handling" style="text;html=1;align=center;verticalAlign=middle;resizable=0;points=[];autosize=1;strokeColor=none;fillColor=none;" parent="1" vertex="1">
                    <mxGeometry x="435" y="285" width="100" height="30" as="geometry"/>
                </mxCell>
                <mxCell id="26" value="" style="shape=umlActor;verticalLabelPosition=bottom;verticalAlign=top;html=1;" parent="1" vertex="1">
                    <mxGeometry x="105" y="10" width="30" height="60" as="geometry"/>
                </mxCell>
            </root>
        </mxGraphModel>
    </diagram>
</mxfile>